<?xml version="1.0" standalone="no"?>
<!DOCTYPE svg PUBLIC "-//W3C//DTD SVG 20010904//EN"
 "http://www.w3.org/TR/2001/REC-SVG-20010904/DTD/svg10.dtd">
<svg version="1.0" xmlns="http://www.w3.org/2000/svg"
 width="1020.000000pt" height="449.000000pt" viewBox="0 0 1020.000000 449.000000"
 preserveAspectRatio="xMidYMid meet">

<g transform="translate(0.000000,449.000000) scale(0.100000,-0.100000)"
fill="#000000" stroke="none">
<path d="M3568 3960 c-47 -14 -85 -48 -107 -95 -19 -41 -21 -62 -21 -264 0
-239 5 -264 59 -318 35 -35 90 -53 162 -53 99 1 179 57 198 140 14 59 14 395
0 459 -12 56 -57 108 -111 127 -38 14 -140 16 -180 4z m110 -358 c2 -214 0
-243 -13 -249 -36 -13 -40 12 -40 240 0 122 3 230 7 240 5 11 16 17 25 15 17
-3 18 -24 21 -246z"/>
<path d="M2676 3951 c-3 -5 1 -64 9 -132 8 -68 26 -222 40 -343 14 -120 27
-222 30 -226 9 -14 211 -12 222 2 5 7 17 74 27 148 19 153 26 193 32 188 2 -3
13 -67 24 -144 11 -76 24 -152 28 -169 l8 -30 105 -3 c57 -1 109 1 115 5 6 4
20 96 32 203 12 107 29 254 37 327 8 72 16 142 17 155 3 23 1 23 -87 23 l-90
0 -17 -135 c-9 -74 -17 -169 -18 -210 -1 -41 -5 -84 -9 -95 -10 -25 -16 23
-31 240 -16 228 -3 205 -115 205 l-94 0 -5 -42 c-24 -177 -36 -289 -36 -329 0
-81 -17 -63 -24 24 -3 45 -11 142 -18 215 l-12 132 -82 0 c-46 0 -85 -4 -88
-9z"/>
<path d="M3942 3604 l3 -359 90 0 90 0 2 159 c1 87 4 160 6 163 3 2 14 0 25
-6 25 -13 35 -89 30 -222 l-3 -93 83 -3 82 -4 0 153 c0 166 -6 189 -57 209
-27 10 -23 29 7 29 36 0 50 38 50 135 0 72 -4 97 -20 122 -33 55 -66 65 -237
71 l-153 5 2 -359z m222 223 c19 -14 28 -88 15 -123 -8 -22 -46 -39 -51 -23
-6 17 4 159 11 159 4 0 15 -6 25 -13z"/>
<path d="M4432 3603 l3 -358 145 0 145 0 3 67 3 67 -58 3 -58 3 -3 288 -2 287
-90 0 -90 0 2 -357z"/>
<path d="M4780 3954 c0 -5 0 -166 -1 -359 l0 -350 173 2 c257 3 248 -9 248
341 0 292 -3 308 -71 343 -37 18 -65 22 -196 27 -87 3 -153 1 -153 -4z m224
-130 c14 -13 16 -48 16 -224 0 -204 0 -209 -22 -224 -12 -9 -26 -16 -30 -16
-5 0 -8 108 -8 240 0 201 2 240 14 240 8 0 22 -7 30 -16z"/>
<path d="M7785 3094 c-33 -8 -69 -16 -80 -18 -18 -3 -20 -10 -18 -77 2 -78 38
-220 74 -290 20 -41 39 -44 39 -7 0 12 3 18 6 15 4 -4 16 10 27 31 11 20 31
50 44 66 15 18 22 35 17 45 -3 9 -9 68 -13 131 -7 131 -3 127 -96 104z m-42
-131 c3 -60 14 -121 27 -158 11 -33 19 -66 18 -74 -7 -35 -61 154 -67 233 -7
87 -5 110 8 101 5 -2 11 -48 14 -102z m44 5 c-2 -13 -4 -5 -4 17 -1 22 1 32 4
23 2 -10 2 -28 0 -40z m13 -73 c0 -8 -2 -15 -4 -15 -2 0 -6 7 -10 15 -3 8 -1
15 4 15 6 0 10 -7 10 -15z m17 -127 c-3 -8 -6 -5 -6 6 -1 11 2 17 5 13 3 -3 4
-12 1 -19z"/>
<path d="M7895 3101 c-3 -6 -4 -15 -1 -19 3 -5 6 -56 7 -115 1 -59 6 -107 9
-107 18 0 31 31 26 57 -4 16 -8 64 -10 108 -3 73 -15 101 -31 76z"/>
<path d="M7961 3053 c0 -32 3 -75 7 -96 l7 -38 40 34 c54 46 156 78 233 73
l57 -4 -39 19 c-22 11 -48 16 -59 13 -12 -4 -17 -2 -13 4 5 8 -92 42 -122 42
-8 0 -12 -18 -12 -50 0 -66 -18 -64 -22 3 l-3 52 -37 3 -38 3 1 -58z"/>
<path d="M7603 3046 c-29 -14 -30 -61 -3 -168 21 -83 48 -143 87 -195 13 -19
18 -30 10 -27 -21 8 -70 81 -96 142 -24 59 -54 198 -45 213 3 5 -4 9 -15 9
-12 0 -21 -2 -21 -5 0 -18 32 -163 40 -180 5 -11 18 -42 30 -70 11 -27 28 -57
37 -67 29 -32 -2 -19 -34 15 -55 57 -93 162 -93 252 0 24 -5 35 -15 35 -9 0
-15 -9 -15 -25 0 -24 -3 -25 -54 -25 -30 0 -58 -5 -62 -11 -3 -6 -21 -17 -40
-25 -28 -12 -85 -46 -119 -71 -6 -5 -33 -24 -60 -43 -28 -19 -61 -44 -74 -55
-74 -61 -201 -181 -201 -191 0 -3 14 -22 30 -41 17 -18 30 -38 30 -43 0 -14
-20 -23 -20 -8 0 7 -13 28 -28 47 l-28 33 -49 -53 c-26 -30 -56 -72 -66 -94
-10 -22 -19 -36 -19 -32 0 4 -14 -8 -31 -28 -40 -45 -32 -55 17 -22 43 30 74
73 74 105 0 12 5 22 10 22 6 0 10 -16 10 -35 0 -51 -45 -93 -131 -124 -15 -5
-33 -22 -41 -38 -8 -15 -24 -45 -36 -66 -12 -21 -22 -40 -22 -42 0 -3 27 -5
60 -5 78 0 162 32 217 83 49 45 67 45 29 0 -52 -62 -208 -122 -285 -109 l-38
6 -54 -88 c-30 -48 -56 -91 -58 -97 -2 -5 -10 -14 -17 -18 -8 -4 -14 -12 -14
-17 0 -5 -16 -26 -36 -46 -40 -42 -84 -98 -84 -107 0 -20 250 -189 372 -252
43 -22 54 -33 46 -42 -8 -10 -21 -7 -61 14 -69 34 -258 160 -326 216 l-55 44
-48 -48 c-26 -26 -48 -51 -48 -54 0 -9 33 -38 95 -85 33 -24 65 -49 72 -55 27
-23 40 -32 91 -63 29 -18 57 -32 62 -32 6 0 10 -4 10 -8 0 -4 16 -14 35 -21
38 -13 44 -25 19 -35 -10 -4 -44 9 -83 31 -36 21 -70 40 -76 42 -5 2 -12 7
-15 10 -3 3 -18 13 -35 22 -16 9 -29 21 -27 28 1 7 -4 11 -12 9 -17 -3 -152
90 -161 111 -3 9 0 11 10 8 8 -4 17 -2 20 2 3 5 -1 11 -8 14 -7 3 -49 -22 -93
-55 -43 -33 -89 -64 -101 -69 -13 -5 -23 -12 -23 -17 0 -4 38 -49 84 -98 89
-95 201 -177 293 -216 29 -12 53 -27 53 -34 0 -17 -69 14 -169 75 -78 47 -244
204 -256 241 -3 11 -13 20 -20 20 -21 0 -65 -22 -65 -32 0 -15 112 -148 166
-198 63 -59 150 -118 242 -164 69 -35 90 -56 56 -56 -25 0 -179 80 -237 124
-78 59 -150 126 -186 176 -17 24 -31 36 -31 28 0 -9 15 -38 34 -64 19 -27 55
-79 80 -116 25 -37 52 -70 59 -75 8 -4 18 -15 23 -25 18 -32 149 -161 235
-230 78 -63 112 -88 119 -88 4 0 20 -11 36 -25 36 -31 46 -32 35 -2 -17 45
-22 166 -10 229 21 114 58 167 240 348 186 185 248 261 291 359 l29 66 -5 -47
c-3 -26 -19 -78 -36 -115 -27 -60 -53 -89 -224 -258 -193 -190 -209 -211 -256
-330 -21 -53 -24 -155 -6 -224 20 -78 23 -81 87 -115 57 -29 70 -29 39 -1 -11
10 -20 22 -20 26 0 5 17 -9 39 -30 50 -49 103 -74 171 -79 49 -3 60 0 97 27
44 32 61 75 49 123 -4 16 -2 14 9 -7 29 -60 8 -120 -51 -150 -21 -11 -41 -21
-44 -23 -9 -6 25 -22 48 -22 12 0 31 -6 42 -12 17 -11 23 -9 41 9 31 31 49
109 38 168 -11 58 -28 87 -82 137 -22 21 -35 38 -28 38 19 0 101 -82 122 -122
31 -62 19 -169 -26 -218 -14 -16 -15 -20 -4 -24 14 -5 104 -25 127 -29 6 -1
27 32 46 75 40 91 85 155 159 225 54 52 89 68 124 61 12 -3 0 -14 -42 -35 -67
-34 -157 -119 -185 -173 -10 -20 -26 -62 -35 -94 -14 -49 -15 -60 -4 -67 27
-18 51 -5 64 34 34 100 101 155 327 271 186 96 185 95 240 134 83 61 130 142
152 267 14 78 14 79 15 28 3 -187 -149 -367 -399 -472 -84 -35 -170 -89 -224
-140 -49 -47 -101 -119 -92 -128 2 -3 78 -5 168 -4 128 0 194 6 306 26 79 14
153 30 165 37 12 6 36 15 52 19 25 7 23 8 -10 4 -22 -3 -80 -10 -130 -15 -98
-10 -150 -20 -235 -44 -30 -8 -56 -14 -58 -12 -4 5 96 43 146 56 20 5 55 14
77 19 22 6 99 11 172 11 133 0 183 13 96 25 -27 4 -59 10 -73 15 -23 8 -23 8
9 9 19 1 64 -4 99 -10 55 -10 70 -9 96 4 17 8 50 23 73 34 23 10 43 21 43 25
0 4 -17 10 -37 13 -21 4 -49 11 -63 15 -14 5 -41 11 -60 13 -30 3 -28 4 11 5
26 1 81 -5 123 -14 75 -15 76 -15 107 7 l32 22 -24 10 c-52 19 -175 37 -223
32 -50 -5 -51 -5 -21 10 44 21 132 18 201 -6 92 -32 105 -34 116 -15 5 9 13
16 18 16 5 0 25 11 45 24 l36 25 -63 35 c-134 74 -250 93 -314 51 -30 -19 -40
-19 -20 0 23 23 81 45 119 45 51 0 134 -27 215 -71 92 -49 102 -49 102 -4 0
19 5 35 10 35 6 0 10 -9 10 -20 0 -26 17 -26 25 0 3 11 13 20 20 20 8 0 17 5
21 12 9 15 6 90 -7 146 -5 25 -6 50 -1 59 13 23 23 -25 23 -109 0 -37 3 -68 7
-68 4 0 19 12 35 25 25 22 27 30 27 97 0 45 -6 84 -15 102 -18 35 -18 36 -1
36 16 0 35 -65 38 -135 l3 -50 58 70 c32 39 69 83 82 98 13 15 27 36 30 46 3
11 12 22 20 25 21 8 18 33 -10 95 -14 30 -24 59 -22 65 5 14 57 -68 57 -89 0
-30 19 -14 44 37 14 29 26 56 26 61 0 6 -16 31 -36 56 l-36 46 42 -43 c23 -24
43 -42 44 -40 19 23 67 136 69 161 1 18 8 38 15 45 18 19 15 34 -5 28 -10 -2
-61 -12 -114 -22 l-95 -17 -13 -56 c-25 -107 -50 -140 -234 -304 -48 -43 -99
-99 -114 -124 -35 -60 -73 -177 -73 -225 0 -36 -12 -49 -24 -29 -10 15 21 155
45 207 34 73 59 102 158 183 86 70 143 131 167 176 19 37 44 118 44 144 0 25
-3 26 -60 28 -51 1 -60 -2 -60 -16 0 -41 -35 -115 -77 -161 -25 -27 -49 -50
-54 -50 -5 0 6 14 26 31 36 32 95 141 95 177 0 16 -9 20 -62 26 -126 12 -149
16 -168 26 -11 6 -24 8 -29 5 -5 -3 -11 -1 -13 4 -1 5 -17 12 -35 15 l-32 7
-4 -53 -3 -53 -2 56 c-2 50 -5 57 -24 63 -49 13 -50 12 -46 -82 3 -79 6 -93
32 -126 56 -74 125 -93 216 -61 24 8 45 13 47 11 11 -10 -98 -51 -147 -54 -68
-5 -110 20 -155 92 -27 44 -30 58 -30 130 0 45 4 89 9 99 6 12 4 17 -7 17 -21
0 -41 -90 -34 -151 8 -65 31 -111 82 -164 30 -31 55 -46 86 -53 l44 -10 -51
-1 c-67 -1 -110 27 -146 97 -43 84 -46 160 -12 280 5 16 2 22 -10 22 -9 0 -29
8 -44 19 -15 10 -64 40 -109 65 -90 52 -167 107 -288 206 -44 36 -113 91 -155
122 -41 32 -79 61 -85 66 -38 32 -77 55 -111 67 -27 10 -32 14 -17 15 68 1
208 -88 350 -222 40 -37 75 -68 78 -68 9 0 -12 34 -50 79 -19 24 -35 48 -35
55 0 6 -11 27 -23 46 -13 19 -27 46 -30 60 -3 14 -11 43 -17 65 -6 22 -13 52
-14 68 -3 33 2 28 -67 60 -124 58 -237 83 -341 74 -80 -7 -134 -31 -192 -85
-25 -24 -35 -30 -28 -16 16 31 77 81 120 100 26 12 68 16 142 17 103 0 163
-12 247 -49 17 -8 34 -14 38 -14 4 0 20 -9 35 -20 33 -24 35 -21 38 46 l3 52
-75 31 c-109 45 -179 62 -292 68 -156 9 -242 -18 -321 -99 -44 -45 -82 -117
-83 -155 0 -12 -5 -25 -11 -29 -17 -10 -1 73 24 125 26 53 116 137 177 165 37
17 65 21 155 21 122 0 213 -18 330 -67 106 -45 99 -45 113 8 12 44 11 49 -11
83 -21 32 -41 72 -67 136 -16 37 -40 167 -40 211 0 47 -7 51 -47 30z m36 -151
c6 -33 13 -71 16 -85 3 -14 -3 0 -14 30 -11 30 -22 84 -25 120 -6 70 2 49 23
-65z m-221 -132 c-21 -2 -57 -2 -80 0 -24 2 -7 4 37 4 44 0 63 -2 43 -4z m118
-30 c-7 -7 -77 -5 -85 3 -2 2 17 4 44 4 27 0 45 -3 41 -7z m-496 -107 c0 -11
-19 -15 -25 -6 -3 5 1 10 9 10 9 0 16 -2 16 -4z m-100 -51 c7 -9 8 -15 2 -15
-5 0 -12 7 -16 15 -3 8 -4 15 -2 15 2 0 9 -7 16 -15z m404 5 c-60 -5 -94 -14
-128 -33 -26 -14 -52 -25 -59 -23 -7 1 -9 1 -4 -1 4 -3 -16 -30 -44 -61 -58
-65 -87 -118 -99 -182 -9 -44 -9 -44 -6 15 2 64 40 160 80 203 49 54 157 91
266 90 l75 -1 -81 -7z m-1 -37 c-7 -2 -19 -2 -25 0 -7 3 -2 5 12 5 14 0 19 -2
13 -5z m-66 -19 c-3 -3 -12 -4 -19 -1 -8 3 -5 6 6 6 11 1 17 -2 13 -5z m256
-1 c-7 -2 -19 -2 -25 0 -7 3 -2 5 12 5 14 0 19 -2 13 -5z m-679 -39 c5 -14 4
-15 -9 -4 -17 14 -19 20 -6 20 5 0 12 -7 15 -16z m852 -20 c18 -14 18 -14 -6
-3 -31 14 -36 19 -24 19 6 0 19 -7 30 -16z m-819 -76 c-3 -7 -5 -2 -5 12 0 14
2 19 5 13 2 -7 2 -19 0 -25z m528 25 c-91 -8 -169 -37 -220 -82 l-29 -26 25
35 c37 49 115 80 199 78 40 -1 50 -3 25 -5z m102 -19 c-3 -3 -12 -4 -19 -1 -8
3 -5 6 6 6 11 1 17 -2 13 -5z m-79 -31 c-15 -2 -42 -2 -60 0 -18 2 -6 4 27 4
33 0 48 -2 33 -4z m-511 -105 c-2 -18 -4 -4 -4 32 0 36 2 50 4 33 2 -18 2 -48
0 -65z m138 55 c-9 -50 -14 -67 -21 -61 -5 6 16 98 23 98 2 0 1 -17 -2 -37z
m535 12 c14 -8 21 -14 15 -14 -5 0 -21 6 -35 14 -14 8 -20 14 -15 14 6 0 21
-6 35 -14z m-720 -5 c0 -5 -5 -10 -11 -10 -5 0 -7 5 -4 10 3 6 8 10 11 10 2 0
4 -4 4 -10z m510 -10 c-84 -7 -141 -35 -165 -79 -8 -14 -14 -21 -15 -15 0 20
41 64 78 84 27 14 56 19 107 18 l70 -1 -75 -7z m0 -40 c-8 -5 -25 -10 -36 -10
-27 0 -73 -36 -84 -65 -5 -14 -5 -38 1 -59 22 -81 127 -116 158 -52 13 28 12
31 -13 52 -27 24 -56 23 -56 -2 0 -18 -9 -18 -32 3 -25 23 -22 51 7 65 55 25
154 -87 125 -142 -5 -10 -25 -24 -44 -30 -75 -24 -163 31 -173 109 -8 58 11
96 60 120 43 21 117 30 87 11z m340 -21 l35 -30 -40 27 c-22 16 -42 29 -44 31
-2 2 0 3 5 3 5 0 25 -14 44 -31z m-35 -27 c-3 -3 -11 0 -18 7 -9 10 -8 11 6 5
10 -3 15 -9 12 -12z m-231 -38 c7 -19 2 -18 -19 6 -16 17 -16 20 -3 15 9 -4
19 -13 22 -21z m271 15 c11 -17 -1 -21 -15 -4 -8 9 -8 15 -2 15 6 0 14 -5 17
-11z m-728 -46 c-3 -10 -5 -2 -5 17 0 19 2 27 5 18 2 -10 2 -26 0 -35z m-359
10 c-10 -2 -26 -2 -35 0 -10 3 -2 5 17 5 19 0 27 -2 18 -5z m999 -57 c9 -17
15 -55 15 -93 -1 -83 -29 -136 -96 -178 -45 -27 -58 -30 -140 -32 -84 -1 -86
-1 -31 6 117 15 201 74 231 163 19 58 15 102 -17 162 l-21 41 22 -20 c12 -11
29 -33 37 -49z m143 44 c0 -5 -2 -10 -4 -10 -3 0 -8 5 -11 10 -3 6 -1 10 4 10
6 0 11 -4 11 -10z m-900 -50 c-8 -5 -19 -10 -25 -10 -5 0 -3 5 5 10 8 5 20 10
25 10 6 0 3 -5 -5 -10z m197 -12 c-3 -8 -6 -5 -6 6 -1 11 2 17 5 13 3 -3 4
-12 1 -19z m303 -8 c0 -5 -5 -10 -11 -10 -5 0 -7 5 -4 10 3 6 8 10 11 10 2 0
4 -4 4 -10z m-643 -16 c-3 -3 -12 -4 -19 -1 -8 3 -5 6 6 6 11 1 17 -2 13 -5z
m-64 -21 c-7 -2 -21 -2 -30 0 -10 3 -4 5 12 5 17 0 24 -2 18 -5z m114 1 c-3
-3 -12 -4 -19 -1 -8 3 -5 6 6 6 11 1 17 -2 13 -5z m-42 -14 c-3 -5 -13 -10
-21 -10 -8 0 -12 5 -9 10 3 6 13 10 21 10 8 0 12 -4 9 -10z m170 0 c-3 -5 -10
-10 -16 -10 -5 0 -9 5 -9 10 0 6 7 10 16 10 8 0 12 -4 9 -10z m441 -38 c30 -3
51 0 68 12 14 9 29 16 33 16 4 0 -5 -9 -22 -20 -16 -11 -45 -20 -63 -20 -38 0
-95 24 -114 48 -7 9 2 6 20 -7 19 -13 54 -26 78 -29z m353 -35 c1 -26 -3 -36
-10 -31 -8 4 -9 0 -4 -15 9 -29 -41 -96 -96 -129 -33 -20 -58 -25 -128 -28
l-86 -4 68 15 c37 7 81 20 97 29 16 8 40 12 52 10 19 -4 20 -3 5 4 -17 7 -17
9 -3 21 8 7 21 9 27 5 8 -5 9 -3 5 5 -5 7 0 21 9 31 23 26 44 87 46 135 1 35
2 37 9 15 4 -14 8 -42 9 -63z m-602 51 c-3 -8 -6 -5 -6 6 -1 11 2 17 5 13 3
-3 4 -12 1 -19z m693 -55 c1 -83 -86 -204 -185 -259 -66 -36 -197 -45 -277
-19 -51 16 -182 94 -173 103 2 2 19 -7 37 -21 51 -38 119 -66 197 -79 152 -26
281 34 347 162 22 44 28 68 29 122 0 58 2 64 12 45 7 -12 12 -36 13 -54z
m-1247 60 c-7 -2 -21 -2 -30 0 -10 3 -4 5 12 5 17 0 24 -2 18 -5z m135 0 c-10
-2 -26 -2 -35 0 -10 3 -2 5 17 5 19 0 27 -2 18 -5z m517 -33 c10 -11 16 -20
13 -20 -3 0 -13 9 -23 20 -10 11 -16 20 -13 20 3 0 13 -9 23 -20z m-75 1 c0
-5 21 -32 46 -60 44 -49 84 -78 129 -92 19 -7 19 -7 1 -8 -20 -1 -78 30 -115
63 -32 29 -84 106 -71 106 5 0 10 -4 10 -9z m389 -19 c-12 -19 -69 -55 -76
-49 -2 3 12 14 32 25 19 12 35 26 35 32 0 5 5 10 10 10 6 0 6 -7 -1 -18z
m-784 -42 c3 -6 -4 -10 -17 -10 -18 0 -20 2 -8 10 19 12 18 12 25 0z m-280
-20 c3 -6 -1 -7 -9 -4 -18 7 -21 14 -7 14 6 0 13 -4 16 -10z m55 -20 c18 -12
2 -12 -25 0 -13 6 -15 9 -5 9 8 0 22 -4 30 -9z m1452 -57 c27 -16 48 -32 48
-37 0 -5 -6 -4 -12 1 -13 11 -107 48 -120 48 -5 0 -8 3 -8 8 0 4 0 14 0 23 0
15 2 15 23 0 12 -8 43 -28 69 -43z m-1479 21 c71 -30 252 -96 347 -126 36 -12
60 -23 53 -25 -11 -4 -284 85 -358 116 -11 5 -40 17 -65 27 -25 10 -49 21 -54
26 -19 16 15 8 77 -18z m1340 6 c-3 -12 -8 -19 -11 -16 -5 6 5 36 12 36 2 0 2
-9 -1 -20z m-1256 4 c-3 -3 -12 -4 -19 -1 -8 3 -5 6 6 6 11 1 17 -2 13 -5z
m80 -30 c-3 -3 -12 -4 -19 -1 -8 3 -5 6 6 6 11 1 17 -2 13 -5z m1158 -14 c3
-5 1 -10 -4 -10 -6 0 -11 5 -11 10 0 6 2 10 4 10 3 0 8 -4 11 -10z m-535 -10
c8 -5 11 -10 5 -10 -5 0 -17 5 -25 10 -8 5 -10 10 -5 10 6 0 17 -5 25 -10z
m-533 -6 c-3 -3 -12 -4 -19 -1 -8 3 -5 6 6 6 11 1 17 -2 13 -5z m1269 -45 c45
-22 98 -43 118 -46 51 -8 55 -23 6 -23 -25 0 -39 4 -35 10 3 5 0 7 -8 5 -7 -3
-29 1 -48 9 -19 8 -29 16 -24 16 16 1 -136 50 -156 50 -19 0 -25 11 -12 23 13
13 78 -5 159 -44z m-878 12 c15 -15 39 -36 55 -46 15 -9 27 -21 27 -26 0 -10
-24 8 -84 63 -23 21 -37 38 -33 38 4 0 20 -13 35 -29z m662 19 c0 -5 -2 -10
-4 -10 -3 0 -8 5 -11 10 -3 6 -1 10 4 10 6 0 11 -4 11 -10z m-1003 -6 c-3 -3
-12 -4 -19 -1 -8 3 -5 6 6 6 11 1 17 -2 13 -5z m573 -4 c20 -6 21 -8 5 -8 -11
0 -31 4 -45 8 -20 6 -21 8 -5 8 11 0 31 -4 45 -8z m285 -9 c-7 -12 -64 -41
-79 -41 -6 0 9 11 34 24 54 29 53 28 45 17z m117 -13 c-7 -7 -12 -8 -12 -2 0
14 12 26 19 19 2 -3 -1 -11 -7 -17z m-1218 -161 c50 -29 113 -64 141 -77 27
-13 44 -25 37 -28 -26 -8 -392 218 -417 258 -3 5 28 -15 71 -45 42 -31 118
-79 168 -108z m104 52 c89 -30 162 -57 162 -61 0 -15 -27 -8 -141 33 -63 22
-127 45 -144 51 -51 17 -153 66 -159 77 -4 6 21 -2 56 -17 35 -16 136 -53 226
-83z m229 105 c-3 -3 -12 -4 -19 -1 -8 3 -5 6 6 6 11 1 17 -2 13 -5z m1250 0
c-3 -3 -12 -4 -19 -1 -8 3 -5 6 6 6 11 1 17 -2 13 -5z m-396 -27 c-10 -9 -11
-8 -5 6 3 10 9 15 12 12 3 -3 0 -11 -7 -18z m184 4 c28 -10 79 -31 114 -46 35
-15 79 -27 98 -28 25 -1 29 -3 18 -10 -24 -13 -87 1 -183 40 -47 18 -105 36
-128 40 -24 3 -41 10 -38 14 9 15 66 10 119 -10z m15 -68 c36 -13 87 -31 113
-39 27 -9 47 -17 45 -20 -3 -2 -31 4 -64 15 -159 51 -177 55 -254 61 -23 1
-23 2 -5 9 28 12 90 2 165 -26z m-830 -128 c-37 -126 -96 -212 -255 -375 -72
-74 -159 -173 -193 -218 -71 -95 -83 -84 -31 27 27 56 55 89 189 221 87 85
173 177 190 204 37 54 99 220 102 269 1 18 3 5 6 -28 2 -33 -2 -78 -8 -100z
m175 135 c3 -5 -1 -10 -10 -10 -9 0 -13 5 -10 10 3 6 8 10 10 10 2 0 7 -4 10
-10z m45 -20 c8 -5 11 -10 5 -10 -5 0 -17 5 -25 10 -8 5 -10 10 -5 10 6 0 17
-5 25 -10z m-264 -55 c-4 -25 -11 -45 -16 -45 -6 0 -5 11 0 26 6 14 10 37 10
51 0 15 3 24 6 20 4 -3 3 -27 0 -52z m759 45 c4 -6 -18 -10 -60 -10 -42 0 -64
4 -60 10 3 6 30 10 60 10 30 0 57 -4 60 -10z m-448 -6 c-3 -3 -12 -4 -19 -1
-8 3 -5 6 6 6 11 1 17 -2 13 -5z m33 -4 c0 -5 -4 -10 -10 -10 -5 0 -10 5 -10
10 0 6 5 10 10 10 6 0 10 -4 10 -10z m157 4 c-3 -3 -12 -4 -19 -1 -8 3 -5 6 6
6 11 1 17 -2 13 -5z m-720 -10 c-3 -3 -12 -4 -19 -1 -8 3 -5 6 6 6 11 1 17 -2
13 -5z m646 -1 c-13 -2 -35 -2 -50 0 -16 2 -5 4 22 4 28 0 40 -2 28 -4z m405
0 c-10 -2 -26 -2 -35 0 -10 3 -2 5 17 5 19 0 27 -2 18 -5z m-1200 -39 c72 -25
104 -44 71 -44 -17 0 -163 60 -174 72 -7 7 -5 9 5 5 8 -3 52 -18 98 -33z
m1313 10 c51 -17 96 -25 124 -22 34 2 41 0 33 -9 -6 -7 -25 -13 -43 -13 -34 0
-183 46 -199 61 -15 14 -2 11 85 -17z m-1068 -18 c-10 -13 -20 -22 -22 -20 -4
4 29 44 36 44 2 0 -4 -11 -14 -24z m964 6 c51 -11 104 -44 156 -98 74 -75 106
-168 114 -334 6 -125 -4 -149 -13 -29 -14 198 -41 284 -112 355 -37 38 -122
84 -154 84 -10 0 -18 4 -18 8 0 16 -212 14 -271 -2 -79 -21 -123 -39 -132 -53
-4 -7 -18 -13 -29 -13 -12 0 -19 -2 -16 -5 9 -9 -83 -96 -94 -89 -7 4 -8 2 -4
-4 4 -7 -4 -31 -17 -54 -100 -177 -38 -384 148 -489 55 -31 66 -34 145 -34 71
1 95 5 143 27 113 53 199 170 201 273 0 30 4 51 9 48 16 -10 -1 -130 -24 -175
-31 -61 -113 -134 -178 -159 -75 -29 -199 -36 -269 -16 -63 19 -145 75 -137
94 2 8 0 11 -5 8 -14 -9 -56 61 -80 135 -19 55 -21 79 -16 152 6 87 30 163 49
151 6 -4 8 0 5 8 -3 8 7 32 23 54 16 21 29 35 29 32 0 -4 15 8 33 27 38 39
128 83 207 101 61 14 239 13 307 -3z m1246 11 c-7 -2 -19 -2 -25 0 -7 3 -2 5
12 5 14 0 19 -2 13 -5z m-447 -36 c-14 -56 -102 -106 -161 -91 -27 7 -85 58
-85 75 0 6 16 -6 35 -27 33 -35 37 -36 85 -32 57 6 103 41 115 85 3 14 9 23
12 20 3 -3 3 -17 -1 -30z m-1556 -45 c-19 -104 -91 -215 -238 -368 -48 -50
-103 -109 -123 -132 -20 -23 -44 -42 -54 -42 -23 0 -17 7 144 172 158 162 248
299 259 396 3 25 8 40 13 35 5 -5 5 -31 -1 -61z m24 -89 c-15 -37 -45 -93 -67
-123 -36 -49 -171 -207 -189 -220 -3 -3 -18 -25 -31 -49 -19 -32 -32 -45 -52
-47 -31 -3 -27 3 40 73 136 140 222 246 266 328 21 38 48 129 51 169 1 19 3
12 5 -16 3 -34 -3 -65 -23 -115z m141 127 c20 -38 19 -70 -3 -97 -17 -22 -17
-21 -17 52 0 41 1 75 2 75 1 0 9 -13 18 -30z m105 20 c11 -7 12 -12 3 -21 -8
-8 -14 -6 -22 10 -12 22 -5 27 19 11z m1132 -10 c27 -16 29 -20 12 -20 -11 0
-29 9 -39 20 -23 25 -14 25 27 0z m536 3 c-10 -2 -26 -2 -35 0 -10 3 -2 5 17
5 19 0 27 -2 18 -5z m-2196 -60 c-11 -15 -30 -37 -43 -48 -24 -20 -24 -20 -9
0 8 11 21 26 28 33 6 8 17 23 23 34 6 11 13 17 16 14 3 -2 -4 -17 -15 -33z
m123 -33 c-16 -33 -32 -60 -37 -60 -4 0 -8 -6 -8 -12 0 -22 -132 -159 -147
-154 -8 4 -11 1 -7 -5 6 -11 -35 -46 -49 -41 -4 1 -6 -1 -5 -5 4 -12 -114
-133 -124 -127 -4 3 -5 -2 -2 -10 3 -9 2 -16 -2 -16 -5 0 -18 -20 -29 -45 -11
-25 -22 -45 -25 -45 -7 0 -9 -16 -16 -132 -3 -54 -9 -96 -14 -93 -4 2 -8 43
-9 91 -2 99 14 158 67 244 34 54 59 80 268 280 63 61 119 125 134 152 35 67
39 49 5 -22z m855 59 c55 -12 121 -45 159 -80 30 -28 81 -140 80 -176 0 -25
-2 -24 -14 12 -34 96 -74 154 -129 189 -96 61 -306 61 -432 -1 -55 -27 -144
-107 -144 -130 0 -7 -4 -13 -9 -13 -9 0 -30 -80 -38 -149 -5 -45 22 -161 39
-161 4 0 8 -6 8 -13 0 -23 68 -86 117 -108 97 -44 240 -9 318 77 46 51 49 56
72 109 13 28 22 41 23 30 0 -35 -50 -128 -89 -166 -59 -55 -124 -83 -206 -87
-105 -6 -175 31 -265 137 -18 21 -22 35 -19 57 0 4 -5 10 -13 15 -9 6 -13 34
-13 102 1 87 3 97 34 153 36 63 112 140 149 150 12 3 22 9 22 13 0 11 53 30
110 40 78 13 181 13 240 0z m1017 -36 c-3 -10 -5 -4 -5 12 0 17 2 24 5 18 2
-7 2 -21 0 -30z m110 15 c-3 -8 -6 -5 -6 6 -1 11 2 17 5 13 3 -3 4 -12 1 -19z
m-723 -68 c5 -21 4 -21 -8 5 -9 17 -15 41 -15 55 1 23 2 23 9 -5 5 -16 11 -41
14 -55z m-2195 9 c18 -22 27 -37 20 -33 -17 7 -74 74 -62 73 4 0 23 -18 42
-40z m2092 28 c-1 -12 -15 -9 -19 4 -3 6 1 10 8 8 6 -3 11 -8 11 -12z m-1846
-166 c54 -34 105 -61 112 -61 7 0 13 -4 13 -10 0 -16 -12 -12 -94 35 -87 49
-166 106 -214 155 -51 50 -37 46 26 -9 31 -27 102 -77 157 -110z m2521 98
c-31 -47 -81 -96 -151 -149 -130 -99 -178 -184 -207 -372 -2 -13 -7 -15 -18
-8 -12 8 -12 18 3 79 33 140 52 165 300 397 48 45 87 90 88 100 0 12 3 14 6 6
3 -7 -7 -31 -21 -53z m-1016 31 c52 -15 111 -60 143 -109 39 -57 29 -62 -12
-6 -18 26 -55 58 -84 75 -44 25 -63 30 -123 30 -112 0 -209 -60 -260 -163 -51
-99 -39 -196 30 -239 44 -27 163 -22 226 10 l45 23 -33 -30 c-108 -97 -258
-74 -313 46 -71 156 103 367 306 372 22 0 56 -4 75 -9z m338 -45 c-3 -3 -9 2
-12 12 -6 14 -5 15 5 6 7 -7 10 -15 7 -18z m-385 8 c-13 -2 -35 -2 -50 0 -16
2 -5 4 22 4 28 0 40 -2 28 -4z m563 -69 c11 -11 27 -23 35 -26 8 -3 11 -9 6
-13 -8 -10 -82 65 -98 99 -6 13 -1 9 13 -9 13 -16 32 -39 44 -51z m-2201 46
c10 -11 16 -20 13 -20 -3 0 -13 9 -23 20 -10 11 -16 20 -13 20 3 0 13 -9 23
-20z m645 16 c0 -3 -4 -8 -10 -11 -5 -3 -10 -1 -10 4 0 6 5 11 10 11 6 0 10
-2 10 -4z m2239 -40 c-2 -2 -13 8 -23 22 l-19 27 24 -22 c12 -12 21 -24 18
-27z m-1352 28 c-3 -3 -12 -4 -19 -1 -8 3 -5 6 6 6 11 1 17 -2 13 -5z m212
-24 c40 -29 82 -84 80 -105 0 -5 -6 -1 -12 9 -26 41 -79 94 -110 110 -17 8
-25 16 -16 16 9 0 35 -14 58 -30z m-249 16 c0 -3 -4 -8 -10 -11 -5 -3 -10 -1
-10 4 0 6 5 11 10 11 6 0 10 -2 10 -4z m547 -28 c-3 -8 -6 -5 -6 6 -1 11 2 17
5 13 3 -3 4 -12 1 -19z m83 18 c0 -3 -4 -8 -10 -11 -5 -3 -10 -1 -10 4 0 6 5
11 10 11 6 0 10 -2 10 -4z m-685 -37 c-43 -52 -65 -105 -65 -156 0 -70 31
-104 120 -135 18 -6 11 -7 -23 -3 -71 7 -104 28 -118 74 -19 63 14 164 75 228
32 34 41 27 11 -8z m272 2 c36 -22 93 -101 93 -128 0 -10 -9 -1 -20 22 -56
118 -138 145 -226 76 -11 -9 -5 -1 15 17 41 38 89 43 138 13z m-234 -28 c-41
-43 -53 -71 -53 -124 0 -31 7 -47 29 -70 34 -33 31 -36 -9 -12 -45 26 -52 80
-20 150 19 43 61 93 78 93 5 0 -6 -16 -25 -37z m1342 -24 c9 -28 14 -53 11
-56 -3 -3 -9 3 -12 13 -4 10 -13 34 -20 53 -16 39 -18 54 -5 46 5 -3 17 -28
26 -56z m-2745 41 c0 -5 -2 -10 -4 -10 -3 0 -8 5 -11 10 -3 6 -1 10 4 10 6 0
11 -4 11 -10z m2080 -7 c0 -10 -9 -31 -20 -48 l-21 -30 7 30 c11 54 15 65 25
65 5 0 9 -8 9 -17z m286 -15 c-18 -18 -45 -50 -61 -71 -21 -28 -30 -35 -37
-25 -6 9 -7 7 -6 -7 2 -18 -38 -112 -53 -125 -6 -5 -27 -77 -36 -122 -3 -16
-11 -28 -18 -28 -16 0 -5 63 25 150 33 93 40 106 52 89 6 -10 7 -7 3 9 -5 18
0 31 21 53 15 15 32 26 37 22 6 -3 7 -1 4 4 -6 10 9 25 68 68 35 25 35 16 1
-17z m284 19 c0 -2 -15 -16 -32 -33 l-33 -29 29 33 c28 30 36 37 36 29z m46
-44 c4 -16 10 -32 14 -38 12 -16 20 -75 11 -75 -5 0 -11 17 -15 38 -3 20 -13
50 -21 66 -18 33 -18 36 -5 36 5 0 13 -12 16 -27z m-496 7 c0 -5 -2 -10 -4
-10 -3 0 -8 5 -11 10 -3 6 -1 10 4 10 6 0 11 -4 11 -10z m-80 -4 c0 -9 -70
-139 -71 -131 -1 17 -29 -87 -42 -156 -7 -38 -20 -73 -31 -85 -19 -18 -20 -18
-13 0 4 10 12 39 18 65 6 25 15 66 20 91 11 47 65 166 87 188 6 7 12 18 12 23
0 5 5 9 10 9 6 0 10 -2 10 -4z m-333 -48 c-3 -7 -5 -2 -5 12 0 14 2 19 5 13 2
-7 2 -19 0 -25z m883 -9 c16 -60 8 -66 -12 -8 -9 27 -12 49 -7 49 4 0 13 -18
19 -41z m-1062 3 c6 -9 12 -30 12 -48 0 -26 -7 -37 -34 -53 -18 -12 -48 -21
-67 -21 -42 0 -90 43 -88 79 2 23 2 24 6 4 6 -29 58 -73 88 -73 30 0 85 46 85
70 0 26 -38 51 -69 44 -25 -5 -25 -5 -7 10 22 18 54 13 74 -12z m548 6 c-38
-54 -76 -153 -88 -228 -8 -54 -17 -80 -26 -80 -24 0 -1 117 40 210 29 63 66
120 79 120 7 0 5 -9 -5 -22z m51 -16 c-10 -10 -17 -24 -17 -30 0 -7 -4 -12
-10 -12 -5 0 -10 -7 -10 -16 0 -9 -6 -30 -14 -47 -28 -64 -34 -82 -43 -139 -8
-52 -22 -48 -16 5 12 110 78 257 116 257 6 0 3 -8 -6 -18z m-1327 4 c0 -2 -8
-10 -17 -17 -16 -13 -17 -12 -4 4 13 16 21 21 21 13z m52 -93 c-15 -32 -41
-77 -55 -100 -15 -24 -27 -48 -27 -55 -1 -14 -24 -48 -32 -48 -7 0 13 55 40
109 26 53 95 161 100 156 2 -2 -10 -29 -26 -62z m629 44 c-13 -13 -26 -3 -16
12 3 6 11 8 17 5 6 -4 6 -10 -1 -17z m958 20 c-2 -1 -13 -9 -24 -17 -19 -14
-19 -14 -6 3 7 9 18 17 24 17 6 0 8 -1 6 -3z m71 -19 c0 -19 -2 -20 -10 -8
-13 19 -13 30 0 30 6 0 10 -10 10 -22z m-1759 -11 c-10 -9 -11 -8 -5 6 3 10 9
15 12 12 3 -3 0 -11 -7 -18z m128 -110 c-23 -33 -56 -85 -72 -116 -25 -49 -28
-52 -22 -21 4 19 29 75 56 124 27 49 49 90 49 92 0 1 5 15 12 31 l12 28 4 -39
c3 -32 -4 -48 -39 -99z m-149 88 c0 -8 -4 -15 -10 -15 -5 0 -7 7 -4 15 4 8 8
15 10 15 2 0 4 -7 4 -15z m1660 8 c-1 -18 -18 -35 -24 -24 -4 6 -2 11 4 11 6
0 8 5 5 10 -3 6 -1 10 4 10 6 0 11 -3 11 -7z m-1472 -193 c-24 -21 -52 -54
-63 -74 -20 -38 -29 -43 -40 -25 -10 15 12 65 64 145 l46 71 18 -39 18 -39
-43 -39z m907 53 c-7 -56 -29 -117 -52 -141 -7 -7 -13 -17 -13 -21 0 -16 -96
-103 -160 -146 -71 -47 -189 -105 -214 -105 -9 0 -16 -3 -16 -7 0 -5 -20 -17
-45 -28 -25 -11 -45 -23 -45 -28 0 -5 -9 -7 -20 -4 -11 3 -18 2 -15 -2 2 -4
-13 -17 -33 -29 -21 -11 -51 -32 -67 -46 -17 -14 -34 -26 -40 -26 -19 1 110
111 137 117 15 3 26 8 24 12 -5 7 119 68 149 73 11 1 22 6 25 9 3 3 25 13 49
23 147 58 275 203 322 364 7 23 14 42 17 42 2 0 1 -25 -3 -57z m505 37 c0 -5
-2 -10 -4 -10 -3 0 -8 5 -11 10 -3 6 -1 10 4 10 6 0 11 -4 11 -10z m-463 -62
c-2 -13 -4 -5 -4 17 -1 22 1 32 4 23 2 -10 2 -28 0 -40z m-1710 20 c-3 -8 -6
-5 -6 6 -1 11 2 17 5 13 3 -3 4 -12 1 -19z m460 -20 c-3 -8 -6 -5 -6 6 -1 11
2 17 5 13 3 -3 4 -12 1 -19z m1752 -63 c0 -37 -3 -45 -9 -30 -5 11 -9 43 -9
70 0 37 3 45 9 30 5 -11 9 -42 9 -70z m-2228 9 c-7 -31 -9 -34 -10 -12 -1 27
9 62 15 55 3 -2 0 -22 -5 -43z m2146 4 c-3 -8 -6 -5 -6 6 -1 11 2 17 5 13 3
-3 4 -12 1 -19z m-1305 -92 c-27 -28 -55 -62 -63 -76 -7 -14 -14 -20 -16 -13
-8 24 101 158 120 146 5 -3 -13 -28 -41 -57z m839 5 c-28 -54 -132 -159 -201
-202 -74 -47 -137 -79 -155 -79 -8 0 -15 -4 -15 -10 0 -5 -5 -10 -10 -10 -12
0 -107 -43 -204 -92 -36 -18 -55 -23 -47 -14 20 24 264 142 285 138 10 -2 16
0 12 6 -3 5 14 18 37 28 23 10 44 21 47 24 3 3 32 23 65 44 67 44 137 114 175
174 32 51 38 47 11 -7z m456 -3 c-3 -7 -5 -2 -5 12 0 14 2 19 5 13 2 -7 2 -19
0 -25z m-1204 16 c3 -3 -21 -32 -53 -64 -32 -32 -66 -73 -76 -92 -9 -18 -19
-28 -21 -21 -7 21 37 93 84 139 47 44 55 49 66 38z m920 -21 c-13 -2 -33 -2
-45 0 -13 2 -3 4 22 4 25 0 35 -2 23 -4z m-1243 -38 c13 -14 21 -25 18 -25 -2
0 -15 11 -28 25 -13 14 -21 25 -18 25 2 0 15 -11 28 -25z m365 9 c-63 -47 -88
-70 -121 -114 -46 -61 -57 -58 -15 3 37 54 118 127 140 127 13 -1 12 -3 -4
-16z m-708 -66 c-3 -22 -4 -21 -11 4 -5 16 -5 36 0 45 7 16 8 15 11 -4 3 -13
3 -33 0 -45z m1696 21 c37 -13 67 -27 67 -31 0 -12 -16 -10 -58 8 -61 26 -170
43 -205 33 -46 -13 -57 -10 -22 7 40 19 132 12 218 -17z m97 5 c0 -2 -9 0 -20
6 -11 6 -20 13 -20 16 0 2 9 0 20 -6 11 -6 20 -13 20 -16z m-2052 -29 c-3 -3
-9 2 -12 12 -6 14 -5 15 5 6 7 -7 10 -15 7 -18z m673 -41 c5 -15 8 -29 5 -31
-2 -2 -8 10 -14 26 -13 38 -5 41 9 5z m16 -96 c-3 -7 -5 -2 -5 12 0 14 2 19 5
13 2 -7 2 -19 0 -25z m198 2 c3 -5 1 -10 -4 -10 -6 0 -11 5 -11 10 0 6 2 10 4
10 3 0 8 -4 11 -10z m908 3 c-7 -2 -19 -2 -25 0 -7 3 -2 5 12 5 14 0 19 -2 13
-5z m-1228 -78 c-12 -23 -24 -35 -38 -35 -18 0 -18 2 6 26 15 14 29 36 33 48
4 11 9 16 11 9 3 -7 -3 -28 -12 -48z m293 25 c-7 -10 -14 -18 -15 -16 -6 6 9
36 18 36 5 0 4 -9 -3 -20z m-193 -60 c3 -5 1 -10 -4 -10 -6 0 -11 5 -11 10 0
6 2 10 4 10 3 0 8 -4 11 -10z"/>
<path d="M7670 1870 c-6 -11 -7 -20 -2 -20 6 0 12 9 15 20 3 11 3 20 1 20 -2
0 -8 -9 -14 -20z"/>
<path d="M6841 1274 c0 -11 3 -14 6 -6 3 7 2 16 -1 19 -3 4 -6 -2 -5 -13z"/>
<path d="M7331 1254 c0 -11 3 -14 6 -6 3 7 2 16 -1 19 -3 4 -6 -2 -5 -13z"/>
<path d="M4434 2149 c-18 -5 -45 -22 -62 -37 -69 -64 -69 -225 -1 -298 11 -12
55 -45 99 -74 84 -58 100 -79 100 -140 0 -47 -23 -75 -50 -60 -15 8 -20 24
-22 78 l-3 67 -80 0 -80 0 -3 -55 c-4 -61 11 -125 36 -153 58 -65 225 -77 310
-23 54 34 65 61 65 162 1 121 -22 160 -143 244 -102 71 -121 98 -104 148 7 19
16 27 34 27 23 0 25 -4 28 -52 l3 -53 86 0 85 0 -4 71 c-4 67 -6 73 -40 104
-20 19 -53 38 -75 44 -45 13 -135 13 -179 0z"/>
<path d="M4896 2146 c-62 -23 -86 -54 -98 -128 -9 -50 -9 -79 1 -120 13 -62
38 -90 138 -156 81 -55 103 -84 103 -137 0 -51 -26 -82 -53 -62 -12 8 -17 31
-19 77 l-3 65 -84 3 -84 3 5 -86 c5 -100 20 -128 89 -163 37 -20 56 -23 124
-20 94 4 148 27 176 72 15 24 19 50 19 121 0 119 -18 159 -95 211 -121 83
-139 99 -147 131 -10 40 5 83 31 83 23 0 31 -19 31 -71 l0 -39 86 0 87 0 -6
66 c-6 74 -24 107 -77 138 -43 26 -169 32 -224 12z"/>
<path d="M1001 1983 c-39 -292 -71 -538 -71 -545 0 -5 42 -8 94 -8 l94 0 7 65
7 65 33 0 33 0 7 -65 7 -65 87 0 c48 0 90 2 93 5 3 3 2 27 -3 53 -4 26 -17
108 -28 182 -11 74 -32 210 -46 302 -14 91 -25 169 -25 172 0 3 -60 6 -133 6
l-134 0 -22 -167z m183 -209 l7 -81 -26 -5 c-18 -4 -28 -1 -32 9 -6 16 14 207
24 233 7 18 18 -42 27 -156z"/>
<path d="M1384 2088 c10 -94 35 -303 56 -482 11 -87 20 -162 20 -167 0 -5 52
-9 115 -9 63 0 115 3 115 8 0 4 6 48 14 97 8 50 17 119 21 155 4 36 10 71 14
78 4 7 15 -44 24 -113 10 -70 23 -148 29 -176 l11 -49 114 0 c82 0 115 3 117
13 2 6 18 147 35 312 18 165 35 322 38 348 l6 48 -89 -3 -89 -3 -7 -50 c-7
-58 -25 -221 -33 -317 -4 -38 -10 -68 -14 -68 -4 0 -13 78 -20 173 -6 94 -14
194 -18 220 l-6 48 -96 -3 -96 -3 -17 -150 c-9 -82 -17 -172 -18 -200 0 -53
-19 -102 -21 -55 0 14 -8 111 -17 215 l-17 190 -89 3 -89 3 7 -63z"/>
<path d="M2195 2128 c-2 -13 -12 -77 -20 -143 -53 -414 -65 -503 -71 -527 l-6
-28 95 0 94 0 7 38 c3 20 6 49 6 65 0 24 4 27 34 27 34 0 35 -1 41 -47 3 -27
7 -55 8 -63 2 -12 22 -16 95 -18 l94 -3 -6 28 c-3 15 -22 138 -41 273 -20 135
-41 283 -48 330 l-13 85 -132 3 c-130 3 -132 2 -137 -20z m159 -309 c8 -81 9
-126 3 -131 -10 -6 -46 -3 -54 5 -2 3 1 47 7 98 15 130 21 162 26 156 3 -3 11
-60 18 -128z"/>
<path d="M2605 2139 c-3 -8 -4 -169 -3 -359 l3 -345 93 -3 92 -3 0 161 c0 147
1 160 18 160 37 0 42 -19 42 -172 l0 -149 83 3 82 3 3 115 c5 170 -1 195 -50
230 -23 17 -34 30 -25 30 9 0 29 11 44 24 27 23 28 28 28 113 -1 164 -38 192
-260 201 -118 4 -145 2 -150 -9z m233 -131 c18 -18 15 -113 -4 -133 -29 -28
-39 -12 -42 68 -3 69 -1 77 16 77 10 0 23 -5 30 -12z"/>
<path d="M3097 2144 c-4 -4 -7 -166 -7 -361 l0 -353 158 0 c87 0 161 2 163 4
2 2 2 34 1 70 l-4 66 -64 0 -64 0 0 80 0 80 55 0 55 0 0 69 0 69 -52 -2 -53
-1 0 69 0 69 55 1 55 1 0 70 0 70 -146 3 c-80 1 -148 -1 -152 -4z"/>
<path d="M3470 1790 l0 -360 75 0 74 0 3 153 c3 174 6 174 59 -13 18 -63 37
-121 42 -128 11 -14 164 -14 160 1 -2 4 -3 165 -3 357 l0 350 -75 0 -75 0 0
-152 c0 -83 -3 -148 -7 -144 -4 4 -28 71 -53 149 l-46 142 -77 3 -77 3 0 -361z"/>
<path d="M3967 2144 c-4 -4 -7 -166 -7 -361 l0 -353 160 0 160 0 0 70 0 69
-67 3 -68 3 -3 77 -3 77 58 3 58 3 0 65 0 65 -45 1 c-25 0 -51 2 -57 2 -9 1
-13 22 -13 67 l0 64 63 3 62 3 0 70 0 70 -146 3 c-80 1 -148 -1 -152 -4z"/>
<path d="M6397 1399 c7 -7 15 -10 18 -7 3 3 -2 9 -12 12 -14 6 -15 5 -6 -5z"/>
<path d="M1644 1171 c-46 -28 -59 -70 -59 -191 0 -81 4 -112 18 -137 48 -88
175 -79 214 15 19 45 21 191 4 244 -26 79 -108 111 -177 69z m111 -62 c18 -34
21 -210 4 -242 -23 -43 -64 -50 -95 -16 -16 18 -19 37 -19 136 0 112 1 115 27
138 33 29 63 23 83 -16z"/>
<path d="M1272 988 l3 -193 25 0 25 0 5 140 c6 157 2 157 64 -9 51 -137 52
-138 89 -134 l32 3 3 193 2 193 -27 -3 -28 -3 -1 -128 c-1 -70 -4 -130 -6
-133 -3 -3 -23 39 -43 93 -70 181 -65 173 -108 173 l-37 0 2 -192z"/>
<path d="M1850 1176 c0 -4 18 -81 40 -174 22 -92 42 -177 45 -189 4 -19 12
-23 45 -23 22 0 40 1 40 3 0 1 20 81 44 177 24 96 46 182 47 190 3 10 -5 16
-27 18 l-30 3 -24 -103 c-40 -178 -48 -204 -54 -188 -5 14 -16 65 -50 230 -10
52 -13 55 -43 58 -18 2 -33 1 -33 -2z"/>
<path d="M2150 985 l0 -195 105 0 105 0 0 25 c0 24 -2 25 -75 25 l-75 0 0 65
0 65 70 0 c68 0 70 1 70 25 0 24 -2 25 -70 25 l-70 0 0 55 0 55 75 0 c73 0 75
1 75 25 l0 25 -105 0 -105 0 0 -195z"/>
<path d="M2417 1173 c-3 -5 -4 -91 -3 -193 l1 -185 28 -3 27 -3 0 152 c0 84 3
149 6 146 4 -4 23 -71 43 -149 34 -136 37 -143 61 -143 23 0 26 7 53 120 49
202 56 206 56 28 l1 -153 25 0 25 0 0 195 0 195 -45 0 c-43 0 -45 -1 -54 -37
-9 -38 -38 -167 -47 -210 -8 -43 -20 -23 -43 75 -43 187 -36 172 -86 172 -24
0 -46 -3 -48 -7z"/>
<path d="M2810 985 l0 -195 75 0 c97 0 141 18 161 65 18 44 5 106 -28 129
l-22 16 22 20 c33 31 31 103 -4 135 -24 23 -35 25 -115 25 l-89 0 0 -195z
m156 134 c17 -14 18 -71 2 -87 -7 -7 -31 -12 -55 -12 l-43 0 0 53 c0 30 3 57
8 61 9 10 70 0 88 -15z m-14 -153 c36 -8 51 -51 32 -94 -12 -30 -16 -32 -64
-32 l-50 0 0 64 c0 65 7 76 40 70 8 -2 27 -5 42 -8z"/>
<path d="M3110 985 l0 -195 105 0 105 0 0 25 c0 24 -2 25 -75 25 l-75 0 0 65
0 65 70 0 c68 0 70 1 70 25 0 24 -2 25 -70 25 l-70 0 0 55 0 55 76 0 c72 0 75
1 72 23 -3 21 -8 22 -105 25 l-103 3 0 -196z"/>
<path d="M3374 1167 c-2 -7 -3 -94 -2 -192 l3 -180 27 -3 27 -3 3 83 3 83 38
3 c21 2 44 -2 51 -7 7 -6 16 -40 19 -76 7 -78 11 -85 42 -85 22 0 24 4 21 33
-2 17 -4 53 -5 80 -1 34 -7 52 -21 64 -20 17 -20 17 2 40 16 17 22 36 22 74 1
44 -3 54 -27 75 -25 21 -38 24 -113 24 -60 0 -86 -4 -90 -13z m163 -53 c31
-42 1 -102 -52 -104 -55 -3 -55 -3 -55 58 0 32 3 62 8 66 12 13 86 -2 99 -20z"/>
<path d="M887 1163 c-3 -5 -8 -50 -11 -100 -7 -93 -7 -93 16 -93 13 0 32 7 42
15 25 19 60 19 76 0 19 -23 16 -112 -5 -135 -31 -35 -85 -20 -85 22 0 10 -3
18 -7 19 -5 0 -16 2 -25 4 -44 8 -31 -67 15 -96 54 -33 126 -18 161 33 18 26
22 138 6 169 -23 41 -77 55 -134 33 -17 -7 -21 20 -10 64 6 20 12 22 75 22 67
0 69 1 69 25 0 25 -1 25 -89 25 -50 0 -92 -3 -94 -7z"/>
</g>
</svg>
